<?xml version="1.0" encoding="UTF-8" standalone="no"?><!DOCTYPE svg PUBLIC "-//W3C//DTD SVG 1.1//EN" "http://www.w3.org/Graphics/SVG/1.1/DTD/svg11.dtd"><svg width="100%" height="100%" viewBox="0 0 98 96" version="1.1" xmlns="http://www.w3.org/2000/svg" xmlns:xlink="http://www.w3.org/1999/xlink" xml:space="preserve" xmlns:serif="http://www.serif.com/" style="fill-rule:evenodd;clip-rule:evenodd;stroke-linejoin:round;stroke-miterlimit:2;"><path d="M48.854,0c-27.015,0 -48.854,22 -48.854,49.217c0,21.756 13.993,40.172 33.405,46.69c2.427,0.49 3.316,-1.059 3.316,-2.362c0,-1.141 -0.08,-5.052 -0.08,-9.127c-13.59,2.934 -16.42,-5.867 -16.42,-5.867c-2.184,-5.704 -5.42,-7.17 -5.42,-7.17c-4.448,-3.015 0.324,-3.015 0.324,-3.015c4.934,0.326 7.523,5.052 7.523,5.052c4.367,7.496 11.404,5.378 14.235,4.074c0.404,-3.178 1.699,-5.378 3.074,-6.6c-10.839,-1.141 -22.243,-5.378 -22.243,-24.283c0,-5.378 1.94,-9.778 5.014,-13.2c-0.485,-1.222 -2.184,-6.275 0.486,-13.038c0,0 4.125,-1.304 13.426,5.052c3.982,-1.077 8.089,-1.625 12.214,-1.63c4.125,0 8.33,0.571 12.213,1.63c9.302,-6.356 13.427,-5.052 13.427,-5.052c2.67,6.763 0.97,11.816 0.485,13.038c3.155,3.422 5.015,7.822 5.015,13.2c0,18.905 -11.404,23.06 -22.324,24.283c1.78,1.548 3.316,4.481 3.316,9.126c0,6.6 -0.08,11.897 -0.08,13.526c0,1.304 0.89,2.853 3.316,2.364c19.412,-6.52 33.405,-24.935 33.405,-46.691c0.08,-27.217 -21.839,-49.217 -48.773,-49.217Z" style="fill:#fff;"/></svg>